<?xml version="1.0" encoding="utf-8"?>
<!-- Generator: Adobe Illustrator 26.3.1, SVG Export Plug-In . SVG Version: 6.00 Build 0)  -->
<svg version="1.1" id="Layer_1" xmlns="http://www.w3.org/2000/svg" xmlns:xlink="http://www.w3.org/1999/xlink" x="0px" y="0px"
	 viewBox="0 0 300 300" style="enable-background:new 0 0 300 300;" xml:space="preserve">
<style type="text/css">
	.st0{fill:url(#SVGID_1_);}
	.st1{fill:url(#SVGID_00000174580880758610185610000015201694819580722360_);}
	.st2{fill:url(#SVGID_00000165936141905879380260000015730701736388247999_);}
	.st3{fill:url(#SVGID_00000102504487131694841100000000048499475354724799_);}
	.st4{fill:#B8DDE7;}
	.st5{fill:#1D2856;}
	.st6{fill:#FFFFFF;}
	.st7{fill:#1BA098;}
</style>
<g>
	<g>
		<linearGradient id="SVGID_1_" gradientUnits="userSpaceOnUse" x1="181.7092" y1="79.4414" x2="201.3216" y2="38.7271">
			<stop  offset="0" style="stop-color:#B8DDE7"/>
			<stop  offset="0.1942" style="stop-color:#C6E3EB"/>
			<stop  offset="0.5576" style="stop-color:#EAF4F7"/>
			<stop  offset="0.7132" style="stop-color:#FFFFFF"/>
			<stop  offset="1" style="stop-color:#B8DDE7"/>
		</linearGradient>
		<path class="st0" d="M195.9,55.38c-1.8,2.29-8.81,3.22-8.69-4.16c-4.66,0.75-9.03,5.12-10.32,13.1c-1.11,6.93-2.85,17.47-7,21.99
			c-0.38-0.11-0.75-0.25-1.13-0.41c0.63-1.05,1.1-2.27,1.47-3.6c4.16-14.87-3.96-45.05,47.18-40.83c0,0-19.11,0.74-22.59,5.15
			C198.38,49.24,197.77,52.98,195.9,55.38z"/>
		
			<linearGradient id="SVGID_00000000220584420880571940000006772267964020071047_" gradientUnits="userSpaceOnUse" x1="182.1949" y1="49.2032" x2="178.9722" y2="91.3189">
			<stop  offset="0" style="stop-color:#81B4C7"/>
			<stop  offset="0.6273" style="stop-color:#5A8DA9"/>
			<stop  offset="1" style="stop-color:#457D9C"/>
		</linearGradient>
		<path style="fill:url(#SVGID_00000000220584420880571940000006772267964020071047_);" d="M206.05,96.13
			c0.81,8.3,1.6,16.42,0.94,24.37c-1.16,14.51-7.12,28.41-26.63,41.48c0,0-0.08,0.06-0.23,0.17c-0.14,0.11-0.36,0.27-0.63,0.47
			c0,0.02-0.02,0.02-0.02,0.02c-0.27,0.22-0.59,0.47-0.97,0.78c-0.02,0.02-0.02,0.02-0.03,0.03c-0.38,0.31-0.8,0.67-1.25,1.08
			c-1.44,1.28-3.24,3.04-5.13,5.21c-0.31,0.36-0.64,0.74-0.94,1.13c-0.33,0.38-0.64,0.77-0.95,1.17c-0.64,0.83-1.3,1.71-1.93,2.63
			c-0.59,0.85-1.16,1.72-1.71,2.65c-0.3,0.49-0.58,0.97-0.85,1.47c-0.28,0.5-0.55,1-0.81,1.53c-0.5,0.99-0.99,2.02-1.42,3.08
			c-0.25,0.61-0.5,1.24-0.72,1.86c-0.22,0.58-0.42,1.17-0.59,1.77c-1.66,5.32-2.38,11.36-1.3,18.05c-0.56-0.45-1.14-1-1.71-1.64
			c-0.19-0.2-0.36-0.41-0.55-0.64c-1.33-1.6-2.65-3.65-3.93-5.9c-0.33-0.59-0.66-1.19-0.99-1.82c-1.14-2.16-2.24-4.45-3.24-6.73
			c-0.28-0.63-0.56-1.27-0.83-1.89c-1.24-2.91-2.33-5.7-3.21-8.01c-0.27-0.72-0.5-1.38-0.74-1.99c-0.41-1.13-0.74-2.08-0.99-2.8
			c-0.03-0.09-0.06-0.2-0.09-0.28c-0.06-0.17-0.11-0.33-0.16-0.47c-0.06-0.19-0.11-0.33-0.16-0.44c-0.02-0.06-0.03-0.11-0.05-0.14
			c-0.02-0.08-0.03-0.11-0.03-0.11l-3.82,5.75c-2.14-8.66-1.47-18.08-0.81-23.29c20.91-1.39,24-34.45,24.15-36.52
			c28.88-14.71,21.1-37.74,29.37-56.12c8.28-18.36,24.33-20.55,24.33-20.55C200.8,60.97,204.39,79.28,206.05,96.13z"/>
		
			<linearGradient id="SVGID_00000124154658652116121220000004480109176628957060_" gradientUnits="userSpaceOnUse" x1="96.4854" y1="17.2904" x2="142.1649" y2="81.3409">
			<stop  offset="0" style="stop-color:#97CAD2"/>
			<stop  offset="0.31" style="stop-color:#94C7D1"/>
			<stop  offset="0.5954" style="stop-color:#8ABDCD"/>
			<stop  offset="0.8703" style="stop-color:#7BAEC7"/>
			<stop  offset="1" style="stop-color:#72A5C4"/>
		</linearGradient>
		<path style="fill:url(#SVGID_00000124154658652116121220000004480109176628957060_);" d="M162.77,79.3c0,1.44-0.89,3.32-2.02,4.74
			c-5.46-1.83-13.21-5.21-21.13-9.19c-3.02-1.52-30.98-14.76-36.69-17.61c1.13-3.18,21.82,5.46,21.82,5.46s-27.83-16.5-24.67-21.41
			c2.99-4.65,19.33,9.41,21.09,10.94c-2.29-2.35-30.13-31.06-21.7-37.29C108.54,8.24,131.38,69.81,162.77,79.3z"/>
		
			<linearGradient id="SVGID_00000086680123498153782880000008477710483684962469_" gradientUnits="userSpaceOnUse" x1="125.4379" y1="18.0083" x2="147.4445" y2="119.2389">
			<stop  offset="0" style="stop-color:#97CAD2"/>
			<stop  offset="0.31" style="stop-color:#94C7D1"/>
			<stop  offset="0.5954" style="stop-color:#8ABDCD"/>
			<stop  offset="0.8703" style="stop-color:#7BAEC7"/>
			<stop  offset="1" style="stop-color:#72A5C4"/>
		</linearGradient>
		<path style="fill:url(#SVGID_00000086680123498153782880000008477710483684962469_);" d="M217.43,41.48
			c0,0-16.05,2.19-24.33,20.55c-8.27,18.38-0.49,41.41-29.37,56.12c-0.14,0.55-0.3,1.11-0.47,1.69c-0.03,0.09-0.05,0.19-0.08,0.28
			c-0.14,0.44-0.28,0.89-0.44,1.33c-4.57,13.09-17.55,30.59-22.43,27.3c-5.15-3.44,6.17-27.77,6.97-29.48
			c-0.92,1.58-13.21,22.48-18.72,18.57c-7.22-5.13,4.57-25.53,5.31-26.8c-1.06,1.46-19.4,26.19-25.8,22.75
			c-5.23-2.82,13.06-28.63,14.06-30.04c-1.24,1.22-24.4,24.42-32.44,16.01c-4.56-4.76,21.38-23.07,22.87-24.11
			c-1.74,0.75-38.02,16.53-40.48,3.18c-1.06-5.79,31.48-10.49,31.48-10.49s-39.89,1.33-39.37-12.34c0.31-7.51,34.58,3.71,34.58,3.71
			L76.21,68.23c-9.03-4.6-22.89-11.41-29.41-15.83c0,0,0,0-0.02-0.02c-0.2-0.23-2.69-3.15,0.02-3.15c5.67,0,34.47,10.35,48.98,16.56
			c14.53,6.2,36.13,16.62,46.68,21.71c10.28,4.98,33.48,13.29,41.22-1.25c0.05-0.06,0.08-0.13,0.11-0.19
			c0.27-0.44,0.41-0.78,0.45-0.92c0-0.03,0.02-0.05,0.03-0.08c0,0,0.05-0.06,0.14-0.19c-0.03,0.03-0.13,0.09-0.28,0.17
			c0,0,0,0-0.02,0c-1.47,0.74-8.05,3.21-14.21,1.25c4.15-4.52,5.89-15.06,7-21.99c1.28-7.98,5.65-12.35,10.32-13.1
			c-0.13,7.39,6.89,6.45,8.69,4.16c1.86-2.4,2.47-6.14-1.06-8.75C198.32,42.21,217.43,41.48,217.43,41.48z"/>
		<path class="st4" d="M162.77,79.3c0,0.72-0.22,1.55-0.58,2.38l-0.06,0.11c0,0-6.42-2.21-14.86-8.66
			c-8.45-6.47-22.03-22.84-31.29-37.24c-9.02-14.01-11.46-19.71-17.56-19.74c0.23-0.47,0.59-0.86,1.05-1.21
			C108.54,8.24,131.38,69.81,162.77,79.3z"/>
		<path class="st4" d="M183.79,86.08c-7.64,14.81-31,6.43-41.33,1.44C131.91,82.43,110.31,72,95.78,65.8
			C81.27,59.59,52.47,49.24,46.8,49.24c-2.71,0-0.22,2.91-0.02,3.15c-2.69-1.8-4.13-3.21-3.44-3.87
			c2.13-4.52,44.65,11.11,70.33,22.65c1.63,0.78,3.26,1.53,4.84,2.22l0.02-0.02c6.07,2.8,11.99,5.65,17.58,8.45
			C172.27,99.99,181.77,89.57,183.79,86.08z"/>
		<g>
			<circle class="st5" cx="192.38" cy="52.22" r="4.11"/>
			<circle class="st6" cx="190.41" cy="51.57" r="1.71"/>
		</g>
		<path class="st5" d="M224.83,31.8l-5.76,3.6c0,0-0.5-0.08-1.42-0.2c-5.73-0.74-27.38-2.91-40.84,4.76
			c-2.33,1.31-6.15,3.21-7.47,5.12c-0.3,0.41-0.45,0.81-0.49,1.21v0.03c0.67,2.11,3.4-0.13,4.4-0.39
			c-3.73,3.99-6.87,9.28-8.37,16.41c-0.03,0.11-0.05,0.23-0.08,0.34c-0.7,3.58-0.89,6.4-0.95,8.73c-0.47-0.16-0.99-0.34-1.52-0.55
			c-4.66-1.8-11.49-5.34-17.91-12.1c-4.45-4.68-10.08-12.98-15.53-21.01c-10.82-15.92-18.46-26.58-25.34-29.68
			c-1.27-0.58-2.5-0.89-3.73-0.94c-1.83-0.08-4.51,0.42-6.75,3.22c-4.62,5.75-0.33,15.65,4.24,23.14c-0.55,0.11-1.08,0.28-1.58,0.53
			c-1.86,0.88-3.08,2.54-3.44,4.66c-0.77,4.32,1.5,8.44,4.02,11.51c-0.8,0.88-1.3,1.99-1.49,3.26c-0.06,0.3-0.08,0.61-0.09,0.94
			c-0.02,0.13,0.02,0.23,0.02,0.36c-17.97-7.08-37.52-13.37-51.52-14.09c-1.8-0.08-5.81-0.28-8.27,1.63
			c-0.83,0.66-1.49,1.55-1.82,2.79c-0.2,0.77-0.5,1.83,0.23,3.49c0.58,1.31,1.8,2.99,4.23,5.2c3.88,3.54,10.86,8.41,23.21,15.2
			c-0.78,0.39-1.49,0.86-2.11,1.46c-1.75,1.64-2.57,3.91-2.32,6.42c0.75,7.28,6.97,11.65,12.9,14.17c-2.24,1.52-4.1,3.41-4.81,5.75
			c-0.44,1.49-0.8,4.45,1.93,7.51c4.71,5.35,12.57,6.31,19.18,5.93c-1.97,2.83-3.55,6.04-3.71,9.16c-0.14,2.65,0.74,5.02,2.52,6.87
			c4.24,4.43,11.41,2.32,18.17-1.49c-2.99,7.44-2.97,12.43,0.05,14.9c5.07,4.15,11.57,1.22,16.75-2.71c0.14,0.85,0.38,1.66,0.7,2.44
			c1.05,2.54,2.97,4.4,5.57,5.42c2.02,0.78,4.09,0.74,6.03,0.25c-0.23,1.96-0.11,3.88,0.58,5.51c-0.14,0.86-0.33,2.07-0.5,3.54
			c-0.11,0.88-0.22,1.83-0.31,2.88c-0.5,5.67-0.66,13.63,1.03,21.43c0.23,1.16,0.52,2.32,0.86,3.46c0.02,0.03,0.02,0.08,0.03,0.11
			c0.42,1.33,1.19,2.46,2.19,3.3c0.97,0.8,2.14,1.35,3.46,1.55c0.89,0.13,1.75,0.09,2.58-0.08c5.46,12.87,14.34,29.66,23.17,28.35
			c1.47-0.23,2.72-1.05,3.54-2.3c1.38,1.58,2.8,3.1,4.26,4.56c0.63,0.63,1.27,1.25,1.91,1.86c9.05,8.55,19.19,14.65,27.61,17.13
			c18,5.28,23.79-5.82,16.01-15.75c4.79-1.82,2.93-14.45-2.79-18.08c5.37-0.41,6.15-11.55-2.21-13.79
			c-0.88-0.25-1.86-0.39-2.96-0.41c-3.51-0.05-6.9-0.45-9.99-1.27c-9-2.35-15.31-8.23-13.67-19.38c0.02-0.14,0.03-0.3,0.06-0.44
			c3.92-2.75,7.32-5.54,10.28-8.36c1.15,0.09,2.3-0.37,3.39-1.14c-1.09,1-2.3,1.96-3.62,3.04c2.96,0.02,5.19-1.43,6.76-3.01
			c3.84-0.94,5.93-6.48,5.92-9.64c-0.01-1.65-0.04-3.51-0.41-4.99c5.09-9.82,6.36-19.89,6.21-29.95c-0.09-5.95-0.67-11.9-1.25-17.8
			c-1.36-13.9-2.66-27.25,2.52-40.07c0.47-1.16,0.99-2.33,1.58-3.48c0.92-1.86,2-3.71,3.26-5.54c0.69-1.02,1.42-2.04,2.24-3.04
			c0.88-1.14,1.85-2.27,2.9-3.38l6.09-5.15l34.67-29.29L224.83,31.8z M97.91,17.81c0.02-0.23,0.06-0.47,0.13-0.67
			c0.03-0.16,0.08-0.31,0.14-0.47c0.06-0.19,0.14-0.36,0.23-0.52c0.09-0.19,0.22-0.38,0.34-0.55c0.09-0.11,0.2-0.22,0.31-0.33
			c0.13-0.11,0.25-0.22,0.39-0.33c8.94-6.59,31.21,52.97,61.85,63.87c0.49,0.17,0.97,0.34,1.46,0.49c0,0.19-0.02,0.38-0.05,0.56
			c-0.02,0.19-0.06,0.39-0.11,0.59c-0.09,0.41-0.25,0.81-0.42,1.22l-0.06,0.11c-0.36,0.78-0.85,1.58-1.38,2.25
			c-0.03-0.02-0.08-0.03-0.11-0.03c-5.45-1.85-13.15-5.21-21.02-9.16c-3.02-1.52-30.98-14.76-36.69-17.61
			c0.03-0.09,0.08-0.16,0.16-0.23c0.06-0.08,0.13-0.14,0.22-0.19c0.02-0.02,0.05-0.03,0.08-0.05c0.09-0.05,0.2-0.09,0.33-0.13
			c3.99-1.06,21.04,6.06,21.04,6.06s-27.83-16.5-24.67-21.41c2.99-4.65,19.33,9.41,21.09,10.94c-1.99-2.04-23.28-24-23.28-33.8
			C97.88,18.22,97.89,18.01,97.91,17.81z M206.05,96.13c0.81,8.3,1.6,16.42,0.94,24.37c-1.16,14.51-7.12,28.41-26.63,41.48
			c0,0-0.08,0.06-0.23,0.17c-0.14,0.11-0.34,0.27-0.63,0.47c0,0.02-0.02,0.02-0.02,0.02c-0.27,0.22-0.59,0.47-0.97,0.78
			c-0.02,0.02-0.02,0.02-0.03,0.03c-0.38,0.31-0.8,0.67-1.25,1.08c-1.44,1.28-3.24,3.04-5.13,5.21c-0.31,0.36-0.63,0.74-0.94,1.13
			c-0.33,0.38-0.64,0.77-0.95,1.17c-0.64,0.83-1.3,1.71-1.93,2.63c-0.58,0.85-1.14,1.72-1.71,2.65c-0.28,0.49-0.56,0.97-0.85,1.47
			c-0.28,0.5-0.55,1.02-0.81,1.53c-0.5,0.99-0.99,2.02-1.42,3.08c-0.25,0.61-0.5,1.24-0.72,1.86c-0.22,0.58-0.41,1.17-0.59,1.77
			c-1.66,5.32-2.38,11.36-1.3,18.05c-0.56-0.45-1.14-1-1.71-1.64c-0.19-0.2-0.36-0.41-0.55-0.64c-1.33-1.6-2.65-3.65-3.93-5.9
			c-0.33-0.59-0.67-1.19-0.99-1.82c-1.14-2.16-2.24-4.45-3.24-6.73c-0.28-0.63-0.56-1.27-0.83-1.89c-1.24-2.91-2.33-5.7-3.21-8.01
			c-0.27-0.72-0.5-1.38-0.74-1.99c-0.41-1.13-0.74-2.08-0.99-2.8c-0.03-0.09-0.06-0.2-0.09-0.28c-0.06-0.17-0.11-0.33-0.16-0.47
			c-0.06-0.19-0.11-0.33-0.16-0.44c-0.02-0.05-0.03-0.09-0.05-0.14c-0.02-0.08-0.03-0.11-0.03-0.11l-3.82,5.75
			c-2.14-8.66-1.47-18.08-0.81-23.29c20.91-1.39,24-34.45,24.15-36.52c-0.14,0.55-0.3,1.11-0.47,1.69
			c-0.03,0.09-0.05,0.19-0.08,0.28c-0.14,0.44-0.28,0.89-0.44,1.33c-4.57,13.09-17.55,30.59-22.43,27.3
			c-5.15-3.44,6.17-27.77,6.97-29.48c-0.92,1.58-13.21,22.48-18.72,18.57c-7.22-5.13,4.57-25.53,5.31-26.8
			c-1.06,1.46-19.4,26.19-25.8,22.75c-5.23-2.82,13.06-28.63,14.06-30.04c-1.24,1.22-24.4,24.42-32.44,16.01
			c-4.56-4.76,21.38-23.07,22.87-24.11c-1.74,0.75-38.02,16.53-40.48,3.18c-1.06-5.79,31.48-10.49,31.48-10.49
			s-39.89,1.33-39.37-12.34c0.31-7.51,34.58,3.71,34.58,3.71L76.21,68.23c-9.03-4.6-22.89-11.41-29.41-15.83c0,0,0,0-0.02-0.02
			c-2.69-1.8-4.13-3.21-3.44-3.87c2.13-4.52,44.65,11.11,70.33,22.65c1.63,0.78,3.26,1.53,4.84,2.22l0.02-0.02
			c6.07,2.8,11.99,5.65,17.58,8.45c35.52,17.85,45.32,8.09,47.57,4.43c0.05-0.06,0.08-0.13,0.11-0.19c0.27-0.44,0.41-0.78,0.45-0.92
			c0-0.03,0.02-0.05,0.03-0.08c0,0,0.05-0.06,0.14-0.19c-0.03,0.03-0.13,0.09-0.28,0.17c0,0,0,0-0.02,0
			c-1.47,0.74-8.05,3.21-14.21,1.25c-0.38-0.11-0.75-0.25-1.13-0.41c0.63-1.05,1.1-2.27,1.47-3.6c4.16-14.87-3.96-45.05,47.18-40.83
			C200.8,60.97,204.39,79.28,206.05,96.13z"/>
	</g>
	<g>
		<path class="st7" d="M29.68,248.74h8.92v35.06h-8.92v-13.47h-9.87v13.47h-8.97v-35.06h8.97v12.97h9.87V248.74z"/>
		<path class="st7" d="M57.18,258.76h8.32v25.05h-8.32v-2.5c-1.5,2.14-3.82,3.21-6.96,3.21c-2.7,0-4.92-0.93-6.64-2.78
			c-1.72-1.85-2.58-4.52-2.58-7.99v-14.98h8.32v13.93c0,1.3,0.34,2.29,1.03,2.96c0.68,0.67,1.59,1,2.73,1c1.3,0,2.31-0.39,3.03-1.18
			c0.72-0.78,1.08-1.91,1.08-3.38V258.76z"/>
		<path class="st7" d="M96.55,258.06c2.91,0,5.2,0.93,6.89,2.78c1.69,1.85,2.53,4.4,2.53,7.64v15.33H97.6v-14.38
			c0-2.34-1.04-3.51-3.11-3.51c-1.14,0-2,0.38-2.58,1.13c-0.59,0.75-0.88,1.78-0.88,3.08v13.68h-8.32v-14.38
			c0-2.34-1.05-3.51-3.16-3.51c-1.14,0-2,0.38-2.58,1.13c-0.58,0.75-0.88,1.78-0.88,3.08v13.68H67.8v-25.05h8.32v2.35
			c1.54-2.04,3.79-3.06,6.76-3.06c2.87,0,5.01,1.07,6.41,3.21C91.02,259.13,93.45,258.06,96.55,258.06z"/>
		<path class="st7" d="M136.73,258.06c2.9,0,5.2,0.93,6.89,2.78c1.69,1.85,2.53,4.4,2.53,7.64v15.33h-8.37v-14.38
			c0-2.34-1.04-3.51-3.11-3.51c-1.14,0-2,0.38-2.58,1.13c-0.59,0.75-0.88,1.78-0.88,3.08v13.68h-8.32v-14.38
			c0-2.34-1.05-3.51-3.16-3.51c-1.14,0-2,0.38-2.58,1.13c-0.58,0.75-0.88,1.78-0.88,3.08v13.68h-8.32v-25.05h8.32v2.35
			c1.54-2.04,3.79-3.06,6.76-3.06c2.87,0,5.01,1.07,6.41,3.21C131.2,259.13,133.62,258.06,136.73,258.06z"/>
		<path class="st7" d="M155.69,255.28c-0.95,0.95-2.08,1.43-3.38,1.43c-1.3,0-2.43-0.48-3.38-1.43c-0.95-0.95-1.43-2.08-1.43-3.38
			c0-1.3,0.48-2.42,1.43-3.36c0.95-0.93,2.08-1.4,3.38-1.4c1.3,0,2.43,0.47,3.38,1.4c0.95,0.93,1.43,2.05,1.43,3.36
			C157.11,253.2,156.64,254.32,155.69,255.28z M148.15,283.8v-25.05h8.32v25.05H148.15z"/>
		<path class="st7" d="M174.04,258.06c2.71,0,4.92,0.93,6.64,2.78s2.58,4.52,2.58,7.99v14.98h-8.32v-13.93
			c0-1.3-0.34-2.29-1.03-2.96c-0.68-0.67-1.59-1-2.73-1c-1.3,0-2.31,0.39-3.03,1.18s-1.08,1.91-1.08,3.38v13.32h-8.32v-25.05h8.32
			v2.5C168.58,259.13,170.91,258.06,174.04,258.06z"/>
		<path class="st7" d="M203.15,258.76h8.22v24.04c0,2-0.38,3.78-1.13,5.33s-1.76,2.79-3.03,3.71c-1.27,0.92-2.66,1.6-4.18,2.05
			s-3.13,0.68-4.83,0.68c-2.77,0-5.24-0.52-7.41-1.55c-2.17-1.04-3.81-2.55-4.91-4.56l6.91-4.01c1.2,1.9,2.97,2.86,5.31,2.86
			c1.5,0,2.72-0.38,3.66-1.15c0.93-0.77,1.4-1.89,1.4-3.36v-2.4c-1.7,2.07-4.04,3.11-7.01,3.11c-3.44,0-6.29-1.24-8.54-3.71
			c-2.25-2.47-3.38-5.48-3.38-9.02c0-3.54,1.13-6.55,3.38-9.02s5.1-3.71,8.54-3.71c2.97,0,5.31,1.03,7.01,3.11V258.76z
			 M194.01,274.51c0.98,0.99,2.26,1.48,3.83,1.48c1.57,0,2.85-0.49,3.83-1.48c0.98-0.98,1.48-2.23,1.48-3.73s-0.49-2.75-1.48-3.73
			c-0.98-0.98-2.26-1.48-3.83-1.48c-1.57,0-2.85,0.49-3.83,1.48c-0.99,0.98-1.48,2.23-1.48,3.73S193.02,273.53,194.01,274.51z"/>
		<path class="st7" d="M228.39,258.21c3.61,0,6.67,1.26,9.19,3.78c2.52,2.52,3.78,5.62,3.78,9.29c0,3.67-1.26,6.77-3.78,9.29
			c-2.52,2.52-5.59,3.78-9.19,3.78c-2.37,0-4.5-0.57-6.39-1.7c-1.89-1.14-3.35-2.69-4.38-4.66v5.81h-2.5v-35.06h2.5v15.83
			c1.03-1.97,2.5-3.52,4.38-4.66C223.89,258.78,226.02,258.21,228.39,258.21z M220.71,278.85c2.05,2.07,4.57,3.11,7.54,3.11
			c2.97,0,5.49-1.03,7.54-3.11c2.05-2.07,3.08-4.59,3.08-7.56s-1.03-5.49-3.08-7.56c-2.05-2.07-4.57-3.11-7.54-3.11
			c-2.97,0-5.49,1.03-7.54,3.11c-2.05,2.07-3.08,4.59-3.08,7.56S218.65,276.78,220.71,278.85z"/>
		<path class="st7" d="M247.58,252.12c-0.4,0.38-0.87,0.58-1.4,0.58c-0.53,0-1-0.19-1.4-0.58s-0.6-0.86-0.6-1.43
			c0-0.53,0.2-0.99,0.6-1.38s0.87-0.58,1.4-0.58c0.53,0,1,0.19,1.4,0.58c0.4,0.38,0.6,0.84,0.6,1.38
			C248.18,251.26,247.98,251.74,247.58,252.12z M244.93,283.8v-25.05h2.5v25.05H244.93z"/>
		<path class="st7" d="M255.14,263.67c1.5-3.51,4.29-5.26,8.37-5.26v2.4c-2.37,0-4.36,0.76-5.96,2.28s-2.4,3.78-2.4,6.79v13.93h-2.5
			v-25.05h2.5V263.67z"/>
		<path class="st7" d="M286.65,248.74h2.5v35.06h-2.5v-5.81c-1.03,1.97-2.5,3.52-4.38,4.66c-1.89,1.14-4.02,1.7-6.39,1.7
			c-3.61,0-6.67-1.26-9.19-3.78c-2.52-2.52-3.78-5.62-3.78-9.29c0-3.67,1.26-6.77,3.78-9.29c2.52-2.52,5.59-3.78,9.19-3.78
			c2.37,0,4.5,0.57,6.39,1.7c1.89,1.14,3.35,2.69,4.38,4.66V248.74z M268.49,278.85c2.05,2.07,4.57,3.11,7.54,3.11
			c2.97,0,5.49-1.03,7.54-3.11c2.05-2.07,3.08-4.59,3.08-7.56s-1.03-5.49-3.08-7.56c-2.05-2.07-4.57-3.11-7.54-3.11
			c-2.97,0-5.49,1.03-7.54,3.11c-2.05,2.07-3.08,4.59-3.08,7.56S266.44,276.78,268.49,278.85z"/>
	</g>
</g>
</svg>
